<?xml version="1.0" encoding="utf-8"?>
<!-- Generator: Adobe Illustrator 24.1.0, SVG Export Plug-In . SVG Version: 6.00 Build 0)  -->
<svg version="1.1" xmlns="http://www.w3.org/2000/svg" xmlns:xlink="http://www.w3.org/1999/xlink" x="0px" y="0px"
	 viewBox="0 0 800 800" style="enable-background:new 0 0 800 800;" xml:space="preserve">
<style type="text/css">
	.st0{display:none;}
	.st1{display:inline;fill:#FFFFFF;}
	.st2{fill:#FFFFFF;}
</style>
<g id="Layer_3">
	<rect width="800" height="800"/>
</g>
<g id="Layer_1" class="st0">
	<path class="st1" d="M166.7,133.3h166.7c18.4,0,33.3,14.9,33.3,33.3v166.7c0,18.4-14.9,33.3-33.3,33.3H166.7
		c-18.4,0-33.3-14.9-33.3-33.3V166.7C133.3,148.3,148.3,133.3,166.7,133.3z"/>
	<path class="st1" d="M166.7,433.3h166.7c18.4,0,33.3,14.9,33.3,33.3v166.7c0,18.4-14.9,33.3-33.3,33.3H166.7
		c-18.4,0-33.3-14.9-33.3-33.3V466.7C133.3,448.3,148.3,433.3,166.7,433.3z"/>
	<path class="st1" d="M466.7,133.3h166.7c18.4,0,33.3,14.9,33.3,33.3v166.7c0,18.4-14.9,33.3-33.3,33.3H466.7
		c-18.4,0-33.3-14.9-33.3-33.3V166.7C433.3,148.3,448.3,133.3,466.7,133.3z"/>
	<path class="st1" d="M466.7,433.3h166.7c18.4,0,33.3,14.9,33.3,33.3v166.7c0,18.4-14.9,33.3-33.3,33.3H466.7
		c-18.4,0-33.3-14.9-33.3-33.3V466.7C433.3,448.3,448.3,433.3,466.7,433.3z"/>
</g>
<g id="Layer_2">
	<g>
		<path class="st2" d="M149.6,252.8V162c0-2.7,2.2-5,4.9-5c0.2,0,0.4,0,0.7,0c164.3,0,328.5,0,492.8-0.1c4.5,0,5.8,1.2,5.8,5.7
			c-0.2,29.8-0.2,59.7,0,89.5c0,4.4-1,5.8-5.7,5.8c-164.3-0.1-328.5-0.1-492.8-0.1c-0.2,0-0.4,0-0.6,0
			C151.9,257.8,149.6,255.5,149.6,252.8z"/>
		<path class="st2" d="M648.6,459.2H154.7c-2.8,0-5-2.2-5-5v-90.5c0-2.7,2.2-5,4.9-5c0.3,0,0.5,0,0.8,0c164.1,0,328.2,0,492.3-0.1
			c4.8,0,6,1.3,6,6c-0.2,29.7-0.1,59.3-0.1,89c0,0.2,0,0.4,0,0.6C653.6,456.9,651.4,459.2,648.6,459.2z"/>
		<path class="st2" d="M149.6,656.2v-90.5c0-2.8,2.2-5,5-5h494c2.7,0,5,2.2,5,4.9c0,0,0,0,0,0c0,30-0.1,60,0.1,90
			c0,4.7-1.5,5.6-5.9,5.6c-164.1-0.1-328.2-0.1-492.3-0.1c-0.3,0-0.6,0-0.9,0C151.9,661.2,149.6,659,149.6,656.2z"/>
	</g>
</g>
</svg>
